<svg width="18" height="21" viewBox="0 0 18 21" fill="none" xmlns="http://www.w3.org/2000/svg">
<path d="M3 20.4799C2.16667 20.4799 1.45833 20.1883 0.875 19.6049C0.291667 19.0216 0 18.3133 0 17.4799V15.4799C0 15.1966 0.0960001 14.9593 0.288 14.7679C0.479333 14.5759 0.716667 14.4799 1 14.4799H3V1.20493C3 1.05493 3.06667 0.963265 3.2 0.929932C3.33333 0.896598 3.46667 0.946598 3.6 1.07993L4.5 1.97993L5.65 0.829931C5.75 0.729931 5.86667 0.679932 6 0.679932C6.13333 0.679932 6.25 0.729931 6.35 0.829931L7.5 1.97993L8.65 0.829931C8.75 0.729931 8.86667 0.679932 9 0.679932C9.13333 0.679932 9.25 0.729931 9.35 0.829931L10.5 1.97993L11.65 0.829931C11.75 0.729931 11.8667 0.679932 12 0.679932C12.1333 0.679932 12.25 0.729931 12.35 0.829931L13.5 1.97993L14.65 0.829931C14.75 0.729931 14.8667 0.679932 15 0.679932C15.1333 0.679932 15.25 0.729931 15.35 0.829931L16.5 1.97993L17.4 1.07993C17.5333 0.946598 17.6667 0.892265 17.8 0.916932C17.9333 0.942265 18 1.03826 18 1.20493V17.4799C18 18.3133 17.7083 19.0216 17.125 19.6049C16.5417 20.1883 15.8333 20.4799 15 20.4799H3ZM15 18.4799C15.2833 18.4799 15.5207 18.3839 15.712 18.1919C15.904 18.0006 16 17.7633 16 17.4799V3.47993H5V14.4799H13C13.2833 14.4799 13.5207 14.5759 13.712 14.7679C13.904 14.9593 14 15.1966 14 15.4799V17.4799C14 17.7633 14.096 18.0006 14.288 18.1919C14.4793 18.3839 14.7167 18.4799 15 18.4799ZM6.975 7.47993C6.69167 7.47993 6.45833 7.38393 6.275 7.19193C6.09167 7.0006 6 6.76327 6 6.47993C6 6.1966 6.096 5.95893 6.288 5.76693C6.47933 5.5756 6.71667 5.47993 7 5.47993H11C11.2833 5.47993 11.521 5.5756 11.713 5.76693C11.9043 5.95893 12 6.1966 12 6.47993C12 6.76327 11.9043 7.0006 11.713 7.19193C11.521 7.38393 11.2833 7.47993 11 7.47993H6.975ZM6.975 10.4799C6.69167 10.4799 6.45833 10.3839 6.275 10.1919C6.09167 10.0006 6 9.76327 6 9.47993C6 9.1966 6.096 8.95893 6.288 8.76693C6.47933 8.5756 6.71667 8.47993 7 8.47993H11C11.2833 8.47993 11.521 8.5756 11.713 8.76693C11.9043 8.95893 12 9.1966 12 9.47993C12 9.76327 11.9043 10.0006 11.713 10.1919C11.521 10.3839 11.2833 10.4799 11 10.4799H6.975ZM14 7.47993C13.7167 7.47993 13.4793 7.38393 13.288 7.19193C13.096 7.0006 13 6.76327 13 6.47993C13 6.1966 13.096 5.95893 13.288 5.76693C13.4793 5.5756 13.7167 5.47993 14 5.47993C14.2833 5.47993 14.5207 5.5756 14.712 5.76693C14.904 5.95893 15 6.1966 15 6.47993C15 6.76327 14.904 7.0006 14.712 7.19193C14.5207 7.38393 14.2833 7.47993 14 7.47993ZM14 10.4799C13.7167 10.4799 13.4793 10.3839 13.288 10.1919C13.096 10.0006 13 9.76327 13 9.47993C13 9.1966 13.096 8.95893 13.288 8.76693C13.4793 8.5756 13.7167 8.47993 14 8.47993C14.2833 8.47993 14.5207 8.5756 14.712 8.76693C14.904 8.95893 15 9.1966 15 9.47993C15 9.76327 14.904 10.0006 14.712 10.1919C14.5207 10.3839 14.2833 10.4799 14 10.4799Z" fill="#767676"/>
</svg>
