<svg width="22" height="17" viewBox="0 0 22 17" fill="none" xmlns="http://www.w3.org/2000/svg">
<path d="M1 16.48C0.716667 16.48 0.479333 16.384 0.288 16.192C0.096 16.0006 0 15.7633 0 15.48V13.68C0 13.1133 0.146 12.5923 0.438 12.117C0.729333 11.6423 1.11667 11.28 1.6 11.03C2.63333 10.5133 3.68333 10.1256 4.75 9.86698C5.81667 9.60898 6.9 9.47998 8 9.47998C9.1 9.47998 10.1833 9.60898 11.25 9.86698C12.3167 10.1256 13.3667 10.5133 14.4 11.03C14.8833 11.28 15.2707 11.6423 15.562 12.117C15.854 12.5923 16 13.1133 16 13.68V15.48C16 15.7633 15.904 16.0006 15.712 16.192C15.5207 16.384 15.2833 16.48 15 16.48H1ZM17.525 16.48C17.675 16.3633 17.7917 16.2173 17.875 16.042C17.9583 15.8673 18 15.6716 18 15.455V13.48C18 12.7466 17.796 12.0423 17.388 11.367C16.9793 10.6923 16.4 10.1133 15.65 9.62998C16.5 9.72998 17.3 9.90065 18.05 10.142C18.8 10.384 19.5 10.68 20.15 11.03C20.75 11.3633 21.2083 11.734 21.525 12.142C21.8417 12.5506 22 12.9966 22 13.48V15.48C22 15.7633 21.904 16.0006 21.712 16.192C21.5207 16.384 21.2833 16.48 21 16.48H17.525ZM8 8.47998C6.9 8.47998 5.95833 8.08831 5.175 7.30498C4.39167 6.52165 4 5.57998 4 4.47998C4 3.37998 4.39167 2.43831 5.175 1.65498C5.95833 0.871647 6.9 0.47998 8 0.47998C9.1 0.47998 10.0417 0.871647 10.825 1.65498C11.6083 2.43831 12 3.37998 12 4.47998C12 5.57998 11.6083 6.52165 10.825 7.30498C10.0417 8.08831 9.1 8.47998 8 8.47998ZM18 4.47998C18 5.57998 17.6083 6.52165 16.825 7.30498C16.0417 8.08831 15.1 8.47998 14 8.47998C13.8167 8.47998 13.5833 8.45931 13.3 8.41798C13.0167 8.37598 12.7833 8.32998 12.6 8.27998C13.05 7.74665 13.3957 7.15498 13.637 6.50498C13.879 5.85498 14 5.17998 14 4.47998C14 3.77998 13.879 3.10498 13.637 2.45498C13.3957 1.80498 13.05 1.21331 12.6 0.67998C12.8333 0.596647 13.0667 0.542314 13.3 0.516981C13.5333 0.492314 13.7667 0.47998 14 0.47998C15.1 0.47998 16.0417 0.871647 16.825 1.65498C17.6083 2.43831 18 3.37998 18 4.47998Z" fill="#767676"/>
</svg>
