<svg width="158" height="45" viewBox="0 0 158 45" fill="none" xmlns="http://www.w3.org/2000/svg">
<path d="M21.5264 30.7441L29.5727 39.7819C29.5727 39.8206 29.5613 39.858 29.5613 39.8968V43.4887C29.5613 43.7516 29.6663 44.0037 29.8529 44.1896C30.0396 44.3755 30.2928 44.48 30.5568 44.48H36.1532C36.4172 44.48 36.6705 44.3755 36.8571 44.1896C37.0438 44.0037 37.1487 43.7516 37.1487 43.4887V39.8968C37.1473 39.8617 37.1439 39.8266 37.1387 39.7919L45.1924 30.7453C47.0419 29.0941 48.5213 27.0733 49.5339 24.8145C50.5466 22.5558 51.0699 20.1098 51.0696 17.6361C51.0696 7.91168 43.1238 0 33.3601 0C23.5963 0 15.6504 7.91293 15.6504 17.6374C15.6495 20.111 16.1724 22.5571 17.1849 24.8159C18.1974 27.0747 19.6768 29.0956 21.5264 30.7466V30.7441ZM35.1579 42.4999H31.5522V40.8893H35.1579V42.4999ZM37.3355 32.7841C40.234 30.141 42.2098 24.6577 42.3064 18.1356H49.065C48.9537 21.5093 47.7521 24.7572 45.6388 27.3963C43.5255 30.0355 40.6135 31.9251 37.3355 32.7841ZM49.065 17.1443H42.3064C42.2098 10.6222 40.234 5.13753 37.3355 2.49573C40.6135 3.35479 43.5255 5.24436 45.6388 7.88354C47.7521 10.5227 48.9537 13.7705 49.065 17.1443ZM33.8578 1.99633C34.1724 2.00757 34.4846 2.02505 34.7942 2.05377C38.4186 3.37342 41.1881 9.6009 41.3134 17.1418H33.8578V1.99633ZM33.8578 18.1331H41.311C41.1931 25.6739 38.4186 31.9014 34.7917 33.2223C34.4821 33.2498 34.1649 33.2673 33.8553 33.2772L33.8578 18.1331ZM40.5023 33.7679L35.9326 38.9055H30.7925L26.2177 33.7679C28.4684 34.7601 30.9025 35.2727 33.3638 35.2727C35.8251 35.2727 38.2592 34.7601 40.5099 33.7679H40.5023ZM25.4104 18.1331H32.8623V33.2772C32.5476 33.2673 32.2355 33.2498 31.9258 33.2223C28.3002 31.9014 25.532 25.6739 25.4066 18.1331H25.4104ZM31.9258 2.05377C32.2355 2.02505 32.5527 2.00757 32.8623 1.99633V17.1418H25.4104C25.527 9.6009 28.2939 3.37342 31.9296 2.05377H31.9258ZM29.3833 2.48824C26.4797 5.13504 24.509 10.6197 24.4149 17.1418H17.6538C17.7642 13.7673 18.9655 10.5184 21.0788 7.87823C23.1921 5.2381 26.1047 3.34773 29.3833 2.48824ZM24.4149 18.1331C24.509 24.6551 26.4848 30.1386 29.3833 32.7816C26.1056 31.9222 23.1937 30.0325 21.0804 27.3934C18.9673 24.7544 17.7655 21.5067 17.6538 18.1331H24.4149Z" fill="#006EAA"/>
<path d="M7.41333 29.6528C7.41523 29.8707 7.51719 30.0793 7.69718 30.2334C7.87718 30.3875 8.12073 30.4748 8.37525 30.4765H13.0069C13.136 30.4804 13.2647 30.462 13.3854 30.4224C13.506 30.3828 13.6161 30.3228 13.709 30.246C13.802 30.1691 13.8759 30.0771 13.9264 29.9752C13.9769 29.8734 14.003 29.7639 14.003 29.6533C14.003 29.5427 13.9769 29.4332 13.9264 29.3313C13.8759 29.2295 13.802 29.1374 13.709 29.0606C13.6161 28.9838 13.506 28.9238 13.3854 28.8842C13.2647 28.8446 13.136 28.8262 13.0069 28.8301H8.37525C8.24897 28.83 8.12392 28.8512 8.00728 28.8924C7.89055 28.9337 7.78448 28.9943 7.69515 29.0707C7.6058 29.1471 7.53493 29.2378 7.48658 29.3377C7.43821 29.4376 7.41333 29.5447 7.41333 29.6528Z" fill="#006EAA"/>
<path d="M11.3515 24.7111C11.6178 24.7111 11.8732 24.6244 12.0615 24.4699C12.2498 24.3154 12.3556 24.1059 12.3556 23.8874C12.3556 23.6689 12.2498 23.4595 12.0615 23.305C11.8732 23.1505 11.6178 23.0637 11.3515 23.0637H5.12255C4.85626 23.0637 4.60089 23.1505 4.4126 23.305C4.22431 23.4595 4.11853 23.6689 4.11853 23.8874C4.11853 24.1059 4.22431 24.3154 4.4126 24.4699C4.60089 24.6244 4.85626 24.7111 5.12255 24.7111H11.3515Z" fill="#006EAA"/>
<path d="M9.87459 17.7097C9.87459 17.3823 9.77124 17.0682 9.58719 16.8366C9.40321 16.6049 9.15354 16.4745 8.89315 16.4741H0.98263C0.722021 16.4741 0.472085 16.6043 0.287806 16.836C0.103527 17.0677 0 17.382 0 17.7097C0 18.0374 0.103527 18.3516 0.287806 18.5834C0.472085 18.8151 0.722021 18.9452 0.98263 18.9452H8.90308C9.03209 18.9452 9.15974 18.9133 9.27889 18.8511C9.39805 18.789 9.50632 18.698 9.59744 18.5833C9.68863 18.4685 9.76084 18.3322 9.81009 18.1824C9.85934 18.0325 9.8846 17.8719 9.88444 17.7097" fill="#006EAA"/>
<path d="M140.726 19.1898C140.726 22.9776 138.419 25.7885 133.986 25.7885C129.552 25.7885 127.225 22.9776 127.225 19.1898V9.32544H130.753V19.0539C130.753 21.0258 132.11 22.5247 133.994 22.5247C135.877 22.5247 137.206 21.0258 137.206 19.0539V9.32544H140.734L140.726 19.1898Z" fill="#F9A14C"/>
<path d="M147.916 18.5319L141.901 9.32544H146.288L149.68 15.3351L153.278 9.32544H157.46L151.445 18.5319V25.3823H147.916V18.5319Z" fill="#F9A14C"/>
<path d="M65.9215 19.1209H68.7935V21.7287C67.7696 22.2687 66.6267 22.5418 65.4699 22.5227C62.4621 22.5227 60.4934 20.3456 60.4934 17.354C60.4934 14.3623 62.4621 12.1811 65.4699 12.1811C67.2563 12.1811 68.4087 12.7031 69.3565 13.7002L71.8519 10.9809C70.2458 9.48404 68.0036 8.91736 65.4759 8.91736C60.4772 8.91736 56.8355 12.2055 56.8355 17.354C56.8355 22.5024 60.4812 25.7886 65.4759 25.7886C67.8253 25.7886 70.1101 25.3357 72.1921 24.247V15.8551H65.9215V19.1209Z" fill="#006EAA"/>
<path d="M78.291 8.23706H74.8984V25.3824H78.291V8.23706Z" fill="#006EAA"/>
<path d="M92.5375 19.8702C92.5375 16.3548 89.8234 14.0861 86.4309 14.0861C83.0383 14.0861 80.3243 16.3548 80.3243 19.8702C80.3243 23.3858 83.0383 25.6525 86.4309 25.6525C89.8234 25.6525 92.5375 23.3858 92.5375 19.8702ZM83.7168 19.8702C83.7168 18.215 84.7295 17.0797 86.4309 17.0797C88.1322 17.0797 89.1449 18.215 89.1449 19.8702C89.1449 21.5256 88.1322 22.6588 86.4309 22.6588C84.7295 22.6588 83.7168 21.5256 83.7168 19.8702Z" fill="#006EAA"/>
<path d="M101.763 14.0882C100.362 14.0882 99.0471 14.4722 98.2796 15.5384H98.235V8.23706H94.8425V25.3803H97.9656V23.9282H98.0081C98.5287 24.7223 99.8411 25.6525 101.378 25.6525C104.635 25.6525 106.782 23.2945 106.782 19.9659C106.782 16.9031 104.882 14.0923 101.763 14.0923V14.0882ZM100.678 22.6629C98.9803 22.6629 97.9656 21.5297 97.9656 19.8745C97.9656 18.2192 98.9784 17.0859 100.678 17.0859C102.377 17.0859 103.39 18.2192 103.39 19.8745C103.39 21.5297 102.377 22.6629 100.678 22.6629Z" fill="#006EAA"/>
<path d="M118.791 25.3804V19.7789C118.791 16.107 117.728 14.0923 113.77 14.0923C111.986 14.0923 110.175 14.6833 108.931 15.8613L110.74 17.7175C111.076 17.31 111.498 16.9811 111.974 16.7538C112.451 16.5264 112.971 16.4062 113.499 16.4015C114.675 16.4015 115.67 17.1733 115.67 18.3756C112.834 18.3756 108.23 18.4447 108.23 22.2527C108.23 24.4766 110.086 25.6545 112.143 25.6545C113.523 25.6545 114.88 25.1793 115.625 23.9993H115.67V25.3824L118.791 25.3804ZM113.091 23.3393C112.346 23.3393 111.487 22.9534 111.487 22.1369C111.487 20.6422 113.792 20.5507 114.833 20.5507H115.67V21.2758C115.67 22.6365 114.428 23.3393 113.091 23.3393Z" fill="#006EAA"/>
<path d="M124.355 8.23706H120.962V25.3824H124.355V8.23706Z" fill="#006EAA"/>
</svg>
